{
  "source": "C:\\Users\\Peter\\Desktop\\stuff\\MIUN\\quantitative_research\\video_compression\\videos\\BVI-HD\\BVI-HD_CDVL_videos\\ORIG\\Hamster_1920x1080_60fps.mp4",
  "output": "C:\\Users\\Peter\\Desktop\\stuff\\MIUN\\quantitative_research\\video_compression\\compressed_videos\\BVI-HD\\h264\\1.5\\Hamster_1920x1080_60fps_h264.mp4",
  "codec": "h264",
  "ok": "Input #0, mov,mp4,m4a,3gp,3g2,mj2, from 'C:\\Users\\Peter\\Desktop\\stuff\\MIUN\\quantitative_research\\video_compression\\videos\\BVI-HD\\BVI-HD_CDVL_videos\\ORIG\\Hamster_1920x1080_60fps.mp4':\n  Metadata:\n    major_brand     : isom\n    minor_version   : 512\n    compatible_brands: isomiso2avc1mp41\n    encoder         : Lavf54.28.101\n  Duration: 00:00:05.00, start: 0.000000, bitrate: 208485 kb/s\n  Stream #0:0[0x1](und): Video: h264 (High 4:4:4 Predictive) (avc1 / 0x31637661), yuv420p(progressive), 1920x1080, 208481 kb/s, 60 fps, 60 tbr, 60 tbn (default)\n    Metadata:\n      handler_name    : VideoHandler\n      vendor_id       : [0][0][0][0]\n[out#0/mp4 @ 000001d90d789c00] Codec AVOption b:a (set bitrate (in bits/s)) has not been used for any stream. The most likely reason is either wrong type (e.g. a video option with no video streams) or that it is a private option of some decoder which was not actually used for any stream.\nStream mapping:\n  Stream #0:0 -> #0:0 (h264 (native) -> h264 (libx264))\nPress [q] to stop, [?] for help\n[libx264 @ 000001d90df0a240] using cpu capabilities: MMX2 SSE2Fast SSSE3 SSE4.2 AVX FMA3 BMI2 AVX2\n[libx264 @ 000001d90df0a240] profile High, level 5.0, 4:2:0, 8-bit\n[libx264 @ 000001d90df0a240] 264 - core 165 r3222 b35605a - H.264/MPEG-4 AVC codec - Copyleft 2003-2025 - http://www.videolan.org/x264.html - options: cabac=1 ref=5 deblock=1:0:0 analyse=0x3:0x113 me=hex subme=8 psy=1 psy_rd=1.00:0.00 mixed_ref=1 me_range=16 chroma_me=1 trellis=2 8x8dct=1 cqm=0 deadzone=21,11 fast_pskip=1 chroma_qp_offset=-2 threads=18 lookahead_threads=3 sliced_threads=0 nr=0 decimate=1 interlaced=0 bluray_compat=0 constrained_intra=0 bframes=3 b_pyramid=2 b_adapt=1 b_bias=0 direct=3 weightb=1 open_gop=0 weightp=2 keyint=250 keyint_min=25 scenecut=40 intra_refresh=0 rc_lookahead=50 rc=cbr mbtree=1 bitrate=1500 ratetol=1.0 qcomp=0.60 qpmin=0 qpmax=69 qpstep=4 vbv_maxrate=1500 vbv_bufsize=1500 nal_hrd=none filler=0 ip_ratio=1.40 aq=1:1.00\nOutput #0, mp4, to 'C:\\Users\\Peter\\Desktop\\stuff\\MIUN\\quantitative_research\\video_compression\\compressed_videos\\BVI-HD\\h264\\1.5\\Hamster_1920x1080_60fps_h264.mp4':\n  Metadata:\n    major_brand     : isom\n    minor_version   : 512\n    compatible_brands: isomiso2avc1mp41\n    encoder         : Lavf62.3.100\n  Stream #0:0(und): Video: h264 (avc1 / 0x31637661), yuv420p(tv, progressive), 1920x1080, q=2-31, 1500 kb/s, 60 fps, 15360 tbn (default)\n    Metadata:\n      encoder         : Lavc62.11.100 libx264\n      handler_name    : VideoHandler\n      vendor_id       : [0][0][0][0]\n    Side data:\n      cpb: bitrate max/min/avg: 1500000/0/1500000 buffer size: 1500000 vbv_delay: N/A\nframe=    0 fps=0.0 q=0.0 size=       0KiB time=N/A bitrate=N/A speed=N/A elapsed=0:00:01.15    \nframe=    0 fps=0.0 q=0.0 size=       0KiB time=N/A bitrate=N/A speed=N/A elapsed=0:00:01.91    \nframe=    0 fps=0.0 q=0.0 size=       0KiB time=N/A bitrate=N/A speed=N/A elapsed=0:00:02.58    \nframe=    0 fps=0.0 q=0.0 size=       0KiB time=N/A bitrate=N/A speed=N/A elapsed=0:00:03.31    \nframe=    0 fps=0.0 q=0.0 size=       0KiB time=N/A bitrate=N/A speed=N/A elapsed=0:00:03.92    \nframe=   12 fps=2.7 q=42.0 size=       0KiB time=00:00:00.16 bitrate=   2.3kbits/s speed=0.0373x elapsed=0:00:04.46    \nframe=   28 fps=5.6 q=42.0 size=       0KiB time=00:00:00.43 bitrate=   0.9kbits/s speed=0.0871x elapsed=0:00:04.97    \nframe=   48 fps=8.5 q=43.0 size=       0KiB time=00:00:00.70 bitrate=   0.5kbits/s speed=0.124x elapsed=0:00:05.64    \nframe=   60 fps=9.6 q=43.0 size=       0KiB time=00:00:00.96 bitrate=   0.4kbits/s speed=0.155x elapsed=0:00:06.23    \nframe=   80 fps= 12 q=43.0 size=       0KiB time=00:00:01.16 bitrate=   0.3kbits/s speed=0.171x elapsed=0:00:06.82    \nframe=   97 fps= 13 q=44.0 size=     256KiB time=00:00:01.56 bitrate=1338.9kbits/s speed=0.205x elapsed=0:00:07.63    \nframe=  118 fps= 14 q=44.0 size=     256KiB time=00:00:01.90 bitrate=1104.0kbits/s speed=0.226x elapsed=0:00:08.39    \nframe=  144 fps= 15 q=44.0 size=     256KiB time=00:00:02.21 bitrate= 946.3kbits/s speed=0.236x elapsed=0:00:09.40    \nframe=  152 fps= 15 q=44.0 size=     256KiB time=00:00:02.50 bitrate= 839.0kbits/s speed=0.244x elapsed=0:00:10.24    \nframe=  176 fps= 16 q=44.0 size=     512KiB time=00:00:02.83 bitrate=1480.5kbits/s speed=0.259x elapsed=0:00:10.95    \nframe=  196 fps= 17 q=45.0 size=     512KiB time=00:00:03.23 bitrate=1297.3kbits/s speed=0.278x elapsed=0:00:11.63    \nframe=  222 fps= 18 q=46.0 size=     512KiB time=00:00:03.55 bitrate=1181.6kbits/s speed=0.289x elapsed=0:00:12.29    \nframe=  238 fps= 18 q=47.0 size=     512KiB time=00:00:03.76 bitrate=1113.6kbits/s speed=0.287x elapsed=0:00:13.14    \nframe=  285 fps= 21 q=-1.0 size=     768KiB time=00:00:04.41 bitrate=1424.6kbits/s speed=0.319x elapsed=0:00:13.85    \n[mp4 @ 000001d90d791200] Starting second pass: moving the moov atom to the beginning of the file\n[out#0/mp4 @ 000001d90d789c00] video:917KiB audio:0KiB subtitle:0KiB other streams:0KiB global headers:0KiB muxing overhead: 0.472919%\nframe=  300 fps= 21 q=-1.0 Lsize=     921KiB time=00:00:04.96 bitrate=1519.1kbits/s speed=0.349x elapsed=0:00:14.22    \n[libx264 @ 000001d90df0a240] frame I:2     Avg QP:38.26  size: 16377\n[libx264 @ 000001d90df0a240] frame P:76    Avg QP:42.11  size:  5192\n[libx264 @ 000001d90df0a240] frame B:222   Avg QP:46.10  size:  2300\n[libx264 @ 000001d90df0a240] consecutive B-frames:  1.0%  0.0%  3.0% 96.0%\n[libx264 @ 000001d90df0a240] mb I  I16..4: 15.1% 82.8%  2.1%\n[libx264 @ 000001d90df0a240] mb P  I16..4:  3.9%  9.4%  0.0%  P16..4: 13.9%  0.6%  0.5%  0.0%  0.0%    skip:71.7%\n[libx264 @ 000001d90df0a240] mb B  I16..4:  0.4%  0.7%  0.0%  B16..8: 14.8%  0.5%  0.0%  direct: 0.3%  skip:83.3%  L0:52.2% L1:47.1% BI: 0.7%\n[libx264 @ 000001d90df0a240] 8x8 transform intra:70.9% inter:98.5%\n[libx264 @ 000001d90df0a240] direct mvs  spatial:95.5% temporal:4.5%\n[libx264 @ 000001d90df0a240] coded y,uvDC,uvAC intra: 10.2% 34.9% 4.2% inter: 0.5% 2.8% 0.0%\n[libx264 @ 000001d90df0a240] i16 v,h,dc,p: 31% 30%  7% 31%\n[libx264 @ 000001d90df0a240] i8 v,h,dc,ddl,ddr,vr,hd,vl,hu: 18%  9% 49%  3%  5%  4%  5%  3%  4%\n[libx264 @ 000001d90df0a240] i4 v,h,dc,ddl,ddr,vr,hd,vl,hu: 16% 14% 21% 16% 12%  6%  7%  4%  4%\n[libx264 @ 000001d90df0a240] i8c dc,h,v,p: 79% 10%  8%  3%\n[libx264 @ 000001d90df0a240] Weighted P-Frames: Y:0.0% UV:0.0%\n[libx264 @ 000001d90df0a240] ref P L0: 50.5%  4.6% 24.2%  9.3% 11.5%\n[libx264 @ 000001d90df0a240] ref B L0: 68.4% 20.6%  9.0%  2.0%\n[libx264 @ 000001d90df0a240] ref B L1: 89.5% 10.5%\n[libx264 @ 000001d90df0a240] kb/s:1500.60\n",
  "seconds": 14.810940265655518,
  "probe_out": {}
}